HIERARCHY
ROOT hip
{
  OFFSET 0 0 0
  CHANNELS 6 Xposition Yposition Zposition Zrotation Yrotation Xrotation
  JOINT abdomen
  {
    OFFSET 0 20.6881 -0.73152
    CHANNELS 3 Zrotation Xrotation Yrotation
    JOINT chest
    {
      OFFSET 0 11.7043 -0.48768
      CHANNELS 3 Zrotation Xrotation Yrotation
      JOINT neck
      {
        OFFSET 0 22.1894 -2.19456
        CHANNELS 3 Zrotation Xrotation Yrotation
        JOINT head
        {
          OFFSET -0.24384 7.07133 1.2192
          CHANNELS 3 Zrotation Xrotation Yrotation
          JOINT leftEye
          {
            OFFSET 4.14528 8.04674 8.04672
            CHANNELS 3 Zrotation Xrotation Yrotation
            End Site
            {
              OFFSET 1 0 0
            }
          }
          JOINT rightEye
          {
            OFFSET -3.6576 8.04674 8.04672
            CHANNELS 3 Zrotation Xrotation Yrotation
            End Site
            {
              OFFSET 1 0 0
            }
          }
        }
      }
      JOINT rCollar
      {
        OFFSET -2.68224 19.2634 -4.8768
        CHANNELS 3 Zrotation Xrotation Yrotation
        JOINT rShldr
        {
          OFFSET -8.77824 -1.95073 1.46304
          CHANNELS 3 Zrotation Xrotation Yrotation
          JOINT rForeArm
          {
            OFFSET -28.1742 -1.7115 0.48768
            CHANNELS 3 Zrotation Xrotation Yrotation
            JOINT rHand
            {
              OFFSET -22.5879 0.773209 7.07136
              CHANNELS 3 Zrotation Xrotation Yrotation
              JOINT rThumb1
              {
                OFFSET -1.2192 -0.487915 3.41376
                CHANNELS 3 Zrotation Xrotation Yrotation
                JOINT rThumb2
                {
                  OFFSET -3.37035 -0.52449 3.41376
                  CHANNELS 3 Zrotation Xrotation Yrotation
                  End Site
                  {
                    OFFSET -1.78271 -1.18214 1.43049
                  }
                }
              }
              JOINT rIndex1
              {
                OFFSET -7.75947 0.938293 5.60832
                CHANNELS 3 Zrotation Xrotation Yrotation
                JOINT rIndex2
                {
                  OFFSET -2.54057 -0.884171 1.56538
                  CHANNELS 3 Zrotation Xrotation Yrotation
                  End Site
                  {
                    OFFSET -1.62519 -0.234802 1.16502
                  }
                }
              }
              JOINT rMid1
              {
                OFFSET -8.24714 1.18213 3.41376
                CHANNELS 3 Zrotation Xrotation Yrotation
                JOINT rMid2
                {
                  OFFSET -3.10165 -0.590103 1.0647
                  CHANNELS 3 Zrotation Xrotation Yrotation
                  End Site
                  {
                    OFFSET -2.48547 -0.328903 0.83742
                  }
                }
              }
              JOINT rRing1
              {
                OFFSET -8.82822 0.546677 1.51678
                CHANNELS 3 Zrotation Xrotation Yrotation
                JOINT rRing2
                {
                  OFFSET -2.60934 -0.819778 -0.0198488
                  CHANNELS 3 Zrotation Xrotation Yrotation
                  End Site
                  {
                    OFFSET -2.33842 -0.294052 0.168128
                  }
                }
              }
              JOINT rPinky1
              {
                OFFSET -8.27202 -0.0477905 -0.4584
                CHANNELS 3 Zrotation Xrotation Yrotation
                JOINT rPinky2
                {
                  OFFSET -1.82734 -0.647385 -0.700984
                  CHANNELS 3 Zrotation Xrotation Yrotation
                  End Site
                  {
                    OFFSET -1.69225 -0.51767 -0.607171
                  }
                }
              }
            }
          }
        }
      }
      JOINT lCollar
      {
        OFFSET 2.68224 19.2634 -4.8768
        CHANNELS 3 Zrotation Xrotation Yrotation
        JOINT lShldr
        {
          OFFSET 8.77824 -1.95073 1.46304
          CHANNELS 3 Zrotation Xrotation Yrotation
          JOINT lForeArm
          {
            OFFSET 28.1742 -1.7115 0.48768
            CHANNELS 3 Zrotation Xrotation Yrotation
            JOINT lHand
            {
              OFFSET 22.5879 0.773209 7.07136
              CHANNELS 3 Zrotation Xrotation Yrotation
              JOINT lThumb1
              {
                OFFSET 1.2192 -0.487915 3.41376
                CHANNELS 3 Zrotation Xrotation Yrotation
                JOINT lThumb2
                {
                  OFFSET 3.37035 -0.52449 3.41376
                  CHANNELS 3 Zrotation Xrotation Yrotation
                  End Site
                  {
                    OFFSET 1.78271 -1.18214 1.43049
                  }
                }
              }
              JOINT lIndex1
              {
                OFFSET 7.75947 0.938293 5.60832
                CHANNELS 3 Zrotation Xrotation Yrotation
                JOINT lIndex2
                {
                  OFFSET 2.54057 -0.884171 1.56538
                  CHANNELS 3 Zrotation Xrotation Yrotation
                  End Site
                  {
                    OFFSET 1.62519 -0.234802 1.16502
                  }
                }
              }
              JOINT lMid1
              {
                OFFSET 8.24714 1.18213 3.41376
                CHANNELS 3 Zrotation Xrotation Yrotation
                JOINT lMid2
                {
                  OFFSET 3.10165 -0.590103 1.0647
                  CHANNELS 3 Zrotation Xrotation Yrotation
                  End Site
                  {
                    OFFSET 2.48547 -0.328903 0.83742
                  }
                }
              }
              JOINT lRing1
              {
                OFFSET 8.82822 0.546677 1.51678
                CHANNELS 3 Zrotation Xrotation Yrotation
                JOINT lRing2
                {
                  OFFSET 2.60934 -0.819778 -0.0198488
                  CHANNELS 3 Zrotation Xrotation Yrotation
                  End Site
                  {
                    OFFSET 2.33842 -0.294052 0.168128
                  }
                }
              }
              JOINT lPinky1
              {
                OFFSET 8.27202 -0.0477905 -0.4584
                CHANNELS 3 Zrotation Xrotation Yrotation
                JOINT lPinky2
                {
                  OFFSET 1.82734 -0.647385 -0.700984
                  CHANNELS 3 Zrotation Xrotation Yrotation
                  End Site
                  {
                    OFFSET 1.69225 -0.51767 -0.607171
                  }
                }
              }
            }
          }
        }
      }
    }
  }
  JOINT rButtock
  {
    OFFSET -8.77824 4.35084 1.2192
    CHANNELS 3 Zrotation Xrotation Yrotation
    JOINT rThigh
    {
      OFFSET 0 -1.70687 -2.19456
      CHANNELS 3 Zrotation Xrotation Yrotation
      JOINT rShin
      {
        OFFSET 0 -36.8199 0.73152
        CHANNELS 3 Zrotation Xrotation Yrotation
        JOINT rFoot
        {
          OFFSET 0.73152 -45.1104 -5.12064
          CHANNELS 3 Zrotation Xrotation Yrotation
          End Site
          {
            OFFSET -1.1221 -3.69964 12.103
          }
        }
      }
    }
  }
  JOINT lButtock
  {
    OFFSET 8.77824 4.35084 1.2192
    CHANNELS 3 Zrotation Xrotation Yrotation
    JOINT lThigh
    {
      OFFSET 0 -1.70687 -2.19456
      CHANNELS 3 Zrotation Xrotation Yrotation
      JOINT lShin
      {
        OFFSET 0 -36.8199 0.73152
        CHANNELS 3 Zrotation Xrotation Yrotation
        JOINT lFoot
        {
          OFFSET -0.73152 -45.1104 -5.12064
          CHANNELS 3 Zrotation Xrotation Yrotation
          End Site
          {
            OFFSET 1.1221 -3.69964 12.103
          }
        }
      }
    }
  }
}
MOTION
Frames:	9
Frame Time:	0.00833333
44.2196 84.1455 29.4976 181.036 22.6943 -180.873 -3.32052 14.7138 10.0961 -2.50427 -3.64789 2.68792 -3.03055 -0.495177 8.1798 -11.8891 30.4635 33.4643 -0.0 0.0 0.0 -0.0 0.0 0.0 -2.05737e-14 4.281e-14 8.9801e-14 75.6529 8.94953 -2.64206 -16.4176 -9.08101 30.5593 -0.0560135 6.73545 0.95104 -4.38071e-11 4.4449e-10 -6.53739e-10 -7.90993e-11 7.68553e-10 -1.13091e-09 -4.38091e-11 4.44489e-10 -6.53753e-10 7.73091 5.47488 0.417314 -4.38077e-11 4.4449e-10 -6.53741e-10 2.90554 0.965183 0.102902 -4.37968e-11 4.44491e-10 -6.5374e-10 10.2786 0.731801 0.0259123 -4.38126e-11 4.44493e-10 -6.53728e-10 2.22167 -0.733487 -0.20892 -2.05341e-14 4.28174e-14 8.95727e-14 -78.4527 20.2365 0.350735 16.8595 -9.5108 -31.5094 0.0115282 3.05476 -0.429734 4.45256e-10 1.17742e-09 1.10135e-10 7.72003e-10 2.03778e-09 1.86951e-10 4.45252e-10 1.17742e-09 1.10142e-10 -7.73091 5.47488 -0.417314 4.45256e-10 1.17742e-09 1.10136e-10 -2.90554 0.965183 -0.102902 4.45252e-10 1.17742e-09 1.10129e-10 -10.2786 0.731801 -0.0259123 4.45261e-10 1.17742e-09 1.10123e-10 -2.22167 -0.733487 0.20892 -2.03217e-16 0.0 -3.88251e-19 -9.04155 -23.2399 -4.37263 -1.12831 60.4901 1.46471 -1.27333 -0.731558 -5.80837 2.03217e-16 0.0 3.88251e-19 -12.4242 -8.94761 -1.89531 0.077495 27.5407 -0.308479 0.0587366 -1.24426 -7.80495
43.9905 84.235 29.9303 181.145 23.8765 -180.823 -3.11231 14.5431 10.2691 -2.57791 -3.62326 2.73075 -3.07287 -0.483122 8.19009 -11.6794 30.5362 33.3431 -0.0 0.0 0.0 -0.0 0.0 0.0 -6.79803e-15 5.40655e-14 3.8266e-14 75.5294 9.01567 -2.37791 -16.4719 -9.13321 30.6753 -0.0536719 6.59678 0.931276 2.34709e-11 -5.58318e-10 -1.40831e-09 3.25705e-11 -9.66777e-10 -2.43815e-09 2.34693e-11 -5.58319e-10 -1.40832e-09 7.73091 5.47488 0.417314 2.34708e-11 -5.58319e-10 -1.40831e-09 2.90554 0.965183 0.102902 2.34832e-11 -5.58318e-10 -1.40831e-09 10.2786 0.731801 0.0259123 2.34659e-11 -5.58317e-10 -1.4083e-09 2.22167 -0.733487 -0.20892 -6.71982e-15 5.40745e-14 3.80673e-14 -78.8334 20.0211 1.01329 16.7888 -9.44129 -31.3563 0.0122727 3.1613 -0.444748 6.81415e-10 1.67657e-09 -1.84828e-10 1.18045e-09 2.90064e-09 -3.25247e-10 6.81411e-10 1.67657e-09 -1.84822e-10 -7.73091 5.47488 -0.417314 6.81415e-10 1.67657e-09 -1.84828e-10 -2.90554 0.965183 -0.102902 6.81411e-10 1.67657e-09 -1.84835e-10 -10.2786 0.731801 -0.0259123 6.8142e-10 1.67657e-09 -1.84841e-10 -2.22167 -0.733487 0.20892 -2.03217e-16 0.0 -3.88251e-19 -9.28114 -22.463 -5.15599 -1.17257 61.0829 1.49267 -1.21161 0.246306 -6.11938 2.03217e-16 0.0 3.88251e-19 -12.3903 -9.22579 -1.53117 0.0771491 27.4538 -0.279765 0.117567 -1.11303 -7.30194
43.6617 84.3453 30.2587 181.368 23.854 -180.932 -2.87519 14.4243 10.3414 -2.64551 -3.61939 2.74609 -3.07553 -0.467728 8.21231 -11.558 30.5716 33.2535 -0.0 0.0 0.0 -0.0 0.0 0.0 7.24801e-15 5.38294e-14 -5.48568e-14 75.4205 9.07679 -2.12277 -16.5333 -9.19239 30.8064 -0.0503654 6.39825 0.902997 4.00607e-10 -1.84913e-09 -1.74876e-09 6.83113e-10 -3.20085e-09 -3.03077e-09 4.00607e-10 -1.84913e-09 -1.74878e-09 7.73091 5.47488 0.417314 4.00607e-10 -1.84913e-09 -1.74877e-09 2.90554 0.965183 0.102902 4.00618e-10 -1.84913e-09 -1.74876e-09 10.2786 0.731801 0.0259123 4.00603e-10 -1.84913e-09 -1.74875e-09 2.22167 -0.733487 -0.20892 7.30525e-15 5.38382e-14 -5.5035e-14 -79.2227 19.7756 1.68729 16.7067 -9.36088 -31.1788 0.0135281 3.32999 -0.468527 8.65464e-10 1.82883e-09 -5.36458e-10 1.49753e-09 3.1626e-09 -9.34753e-10 8.65459e-10 1.82882e-09 -5.3645e-10 -7.73091 5.47488 -0.417314 8.65464e-10 1.82883e-09 -5.3646e-10 -2.90554 0.965183 -0.102902 8.65459e-10 1.82883e-09 -5.36465e-10 -10.2786 0.731801 -0.0259123 8.65468e-10 1.82883e-09 -5.36472e-10 -2.22167 -0.733487 0.20892 -2.03217e-16 0.0 -3.88251e-19 -9.55957 -21.5358 -6.09327 -1.20718 61.5087 1.50879 -1.119 1.28824 -6.32287 2.03217e-16 0.0 3.88251e-19 -12.3197 -9.44776 -1.2421 0.0767566 27.3093 -0.24849 0.190379 -0.739737 -6.99731
43.3918 84.4901 30.6351 181.574 24.577 -180.925 -2.60643 14.3452 10.3422 -2.71212 -3.63311 2.7422 -3.05614 -0.450424 8.24276 -11.4877 30.5847 33.187 -0.0 0.0 0.0 -0.0 0.0 0.0 2.36545e-14 4.76052e-14 -1.83882e-13 75.3228 9.13467 -1.87607 -16.6014 -9.25832 30.9525 -0.04653 6.15562 0.868475 9.8634e-10 -3.43783e-09 -1.89892e-09 1.69585e-09 -5.95062e-09 -3.29553e-09 9.86341e-10 -3.43783e-09 -1.89893e-09 7.73091 5.47488 0.417314 9.8634e-10 -3.43784e-09 -1.89892e-09 2.90554 0.965183 0.102902 9.86347e-10 -3.43784e-09 -1.89892e-09 10.2786 0.731801 0.0259123 9.86337e-10 -3.43783e-09 -1.89891e-09 2.22167 -0.733487 -0.20892 2.36546e-14 4.76129e-14 -1.8404e-13 -79.6183 19.5068 2.36882 16.6153 -9.27183 -30.9824 0.0153923 3.55301 -0.499984 1.04145e-09 1.80969e-09 -9.58077e-10 1.79984e-09 3.12744e-09 -1.66506e-09 1.04145e-09 1.80968e-09 -9.58065e-10 -7.73091 5.47488 -0.417314 1.04145e-09 1.80968e-09 -9.5808e-10 -2.90554 0.965183 -0.102902 1.04144e-09 1.80968e-09 -9.58083e-10 -10.2786 0.731801 -0.0259123 1.04146e-09 1.80969e-09 -9.58092e-10 -2.22167 -0.733487 0.20892 -2.03217e-16 0.0 -3.88251e-19 -9.84575 -20.4941 -7.16125 -1.23315 61.7943 1.51428 -1.00374 2.40219 -6.4607 2.03217e-16 0.0 3.88251e-19 -12.2155 -9.62833 -1.01005 0.0763085 27.1164 -0.215107 0.270999 -0.20519 -6.83156
43.1362 84.6464 31.022 181.733 25.6056 -180.912 -2.35561 14.2651 10.3552 -2.77217 -3.64685 2.74198 -3.03116 -0.443475 8.27448 -11.4263 30.6006 33.1261 -0.0 0.0 0.0 -0.0 0.0 0.0 3.75739e-14 3.66601e-14 -3.1355e-13 75.2398 9.18543 -1.63019 -16.6718 -9.32665 31.1037 -0.0431378 5.92522 0.835734 1.65383e-09 -5.03319e-09 -1.95201e-09 2.85065e-09 -8.71208e-09 -3.39277e-09 1.65384e-09 -5.03319e-09 -1.95202e-09 7.73091 5.47488 0.417314 1.65383e-09 -5.0332e-09 -1.952e-09 2.90554 0.965183 0.102902 1.65384e-09 -5.0332e-09 -1.95201e-09 10.2786 0.731801 0.0259123 1.65383e-09 -5.03319e-09 -1.952e-09 2.22167 -0.733487 -0.20892 3.75105e-14 3.66662e-14 -3.13697e-13 -80.0051 19.223 3.03989 16.5183 -9.17781 -30.7746 0.0176243 3.79402 -0.534 1.2357e-09 1.75274e-09 -1.37674e-09 2.1335e-09 3.02665e-09 -2.39039e-09 1.2357e-09 1.75273e-09 -1.37673e-09 -7.73091 5.47488 -0.417314 1.2357e-09 1.75273e-09 -1.37675e-09 -2.90554 0.965183 -0.102902 1.23569e-09 1.75273e-09 -1.37675e-09 -10.2786 0.731801 -0.0259123 1.23571e-09 1.75273e-09 -1.37676e-09 -2.22167 -0.733487 0.20892 -2.03217e-16 0.0 -3.88251e-19 -10.1147 -19.4339 -8.23184 -1.25232 61.9846 1.51362 -0.878659 3.49145 -6.49698 2.03217e-16 0.0 3.88251e-19 -12.1115 -9.81302 -0.789291 0.076117 26.9091 -0.181566 0.352654 0.382381 -6.71358
42.8531 84.7476 31.4074 181.723 26.5703 -180.996 -2.1717 14.1433 10.4637 -2.8201 -3.64307 2.76833 -3.01702 -0.45914 8.30047 -11.3315 30.6448 33.0536 -0.0 0.0 0.0 -0.0 0.0 0.0 4.41586e-14 2.22612e-14 -4.08602e-13 75.1752 9.22517 -1.3775 -16.7399 -9.39311 31.2504 -0.0409127 5.76337 0.812758 2.27626e-09 -6.34397e-09 -2.00128e-09 3.92741e-09 -1.09813e-08 -3.48283e-09 2.27626e-09 -6.34397e-09 -2.00128e-09 7.73091 5.47488 0.417314 2.27626e-09 -6.34397e-09 -2.00127e-09 2.90554 0.965183 0.102902 2.27626e-09 -6.34397e-09 -2.00127e-09 10.2786 0.731801 0.0259123 2.27625e-09 -6.34397e-09 -2.00127e-09 2.22167 -0.733487 -0.20892 4.4055e-14 2.22658e-14 -4.08751e-13 -80.3691 18.9325 3.68279 16.4192 -9.08254 -30.5626 0.0198281 4.01666 -0.565441 1.47454e-09 1.79157e-09 -1.71951e-09 2.54461e-09 3.09168e-09 -2.98499e-09 1.47453e-09 1.79157e-09 -1.71949e-09 -7.73091 5.47488 -0.417314 1.47454e-09 1.79157e-09 -1.71952e-09 -2.90554 0.965183 -0.102902 1.47453e-09 1.79157e-09 -1.71951e-09 -10.2786 0.731801 -0.0259123 1.47454e-09 1.79157e-09 -1.71953e-09 -2.22167 -0.733487 0.20892 -2.03217e-16 0.0 -3.88251e-19 -10.3581 -18.4527 -9.18213 -1.26681 62.1246 1.5116 -0.759589 4.45964 -6.3947 2.03217e-16 0.0 3.88251e-19 -12.04 -10.0472 -0.533912 0.0763771 26.7215 -0.149765 0.426665 0.914992 -6.55181
42.5647 84.8107 31.801 181.69 27.5349 -181.006 -2.09535 13.9541 10.7011 -2.84441 -3.61125 2.82999 -3.0209 -0.519216 8.3151 -11.1802 30.7516 32.9618 -0.0 0.0 0.0 -0.0 0.0 0.0 3.52848e-14 -1.232e-15 -4.50892e-13 75.1343 9.24075 -1.11431 -16.8046 -9.45672 31.3902 -0.0402205 5.70947 0.805115 2.84222e-09 -7.1602e-09 -1.9936e-09 4.90658e-09 -1.23949e-08 -3.47355e-09 2.84222e-09 -7.1602e-09 -1.9936e-09 7.73091 5.47488 0.417314 2.84222e-09 -7.1602e-09 -1.99359e-09 2.90554 0.965183 0.102902 2.84222e-09 -7.1602e-09 -1.99359e-09 10.2786 0.731801 0.0259123 2.84221e-09 -7.1602e-09 -1.99358e-09 2.22167 -0.733487 -0.20892 3.51758e-14 -1.2287e-15 -4.51073e-13 -80.7158 18.6403 4.30392 16.3196 -8.98754 -30.3502 0.0217578 4.20135 -0.591537 1.78522e-09 1.98615e-09 -1.91193e-09 3.08059e-09 3.42637e-09 -3.32028e-09 1.78521e-09 1.98615e-09 -1.91192e-09 -7.73091 5.47488 -0.417314 1.78522e-09 1.98615e-09 -1.91194e-09 -2.90554 0.965183 -0.102902 1.78521e-09 1.98615e-09 -1.91194e-09 -10.2786 0.731801 -0.0259123 1.78523e-09 1.98615e-09 -1.91195e-09 -2.22167 -0.733487 0.20892 -2.03217e-16 0.0 -3.88251e-19 -10.627 -17.5888 -10.0006 -1.2787 62.2422 1.51067 -0.650912 5.31469 -6.12647 2.03217e-16 0.0 3.88251e-19 -12.0278 -10.3497 -0.216534 0.0770331 26.5589 -0.119735 0.491916 1.39363 -6.35643
42.2773 84.8573 32.2047 181.735 28.4863 -180.935 -2.08942 13.7241 11.0187 -2.85151 -3.56272 2.91387 -3.03309 -0.610985 8.32338 -10.9985 30.8985 32.8609 -0.0 0.0 0.0 -0.0 0.0 0.0 1.5815e-14 -3.25024e-14 -4.6214e-13 75.1139 9.23826 -0.845292 -16.8684 -9.51973 31.5282 -0.0404514 5.72538 0.807373 3.41189e-09 -7.68132e-09 -1.90523e-09 5.8925e-09 -1.3298e-08 -3.32437e-09 3.41189e-09 -7.68131e-09 -1.90524e-09 7.73091 5.47488 0.417314 3.41189e-09 -7.68131e-09 -1.90523e-09 2.90554 0.965183 0.102902 3.41189e-09 -7.68131e-09 -1.90523e-09 10.2786 0.731801 0.0259123 3.41188e-09 -7.68131e-09 -1.90522e-09 2.22167 -0.733487 -0.20892 1.57183e-14 -3.25006e-14 -4.62373e-13 -81.0499 18.3415 4.90915 16.2174 -8.89057 -30.133 0.0236069 4.37078 -0.61549 2.14697e-09 2.25711e-09 -2.01124e-09 3.70515e-09 3.89324e-09 -3.495e-09 2.14696e-09 2.25711e-09 -2.01123e-09 -7.73091 5.47488 -0.417314 2.14697e-09 2.25711e-09 -2.01125e-09 -2.90554 0.965183 -0.102902 2.14696e-09 2.2571e-09 -2.01124e-09 -10.2786 0.731801 -0.0259123 2.14697e-09 2.25711e-09 -2.01125e-09 -2.22167 -0.733487 0.20892 -2.03217e-16 0.0 -3.88251e-19 -10.9195 -16.7877 -10.7498 -1.2863 62.3083 1.50779 -0.554742 6.09769 -5.71619 2.03217e-16 0.0 3.88251e-19 -12.0497 -10.6939 0.133665 0.0779738 26.4043 -0.0906014 0.55281 1.86591 -6.16462
41.9927 84.8828 32.6339 181.829 29.4381 -180.881 -2.08629 13.4911 11.3775 -2.86268 -3.51259 3.01011 -3.04463 -0.694934 8.33424 -10.8186 31.025 32.7605 -0.0 0.0 0.0 -0.0 0.0 0.0 3.80716e-16 -5.98469e-14 -4.66883e-13 75.1053 9.2426 -0.575349 -16.9319 -9.58271 31.6658 -0.0407828 5.75102 0.81101 3.96576e-09 -8.23016e-09 -1.87352e-09 6.8509e-09 -1.42492e-08 -3.2731e-09 3.96577e-09 -8.23014e-09 -1.87353e-09 7.73091 5.47488 0.417314 3.96576e-09 -8.23014e-09 -1.87352e-09 2.90554 0.965183 0.102902 3.96576e-09 -8.23014e-09 -1.87352e-09 10.2786 0.731801 0.0259123 3.96575e-09 -8.23013e-09 -1.87351e-09 2.22167 -0.733487 -0.20892 3.01072e-16 -5.98464e-14 -4.67163e-13 -81.356 18.0299 5.48017 16.1103 -8.78981 -29.9059 0.0255873 4.55199 -0.641113 2.51402e-09 2.52907e-09 -2.14202e-09 4.33881e-09 4.36178e-09 -3.72441e-09 2.51402e-09 2.52907e-09 -2.14202e-09 -7.73091 5.47488 -0.417314 2.51402e-09 2.52907e-09 -2.14203e-09 -2.90554 0.965183 -0.102902 2.51402e-09 2.52907e-09 -2.14203e-09 -10.2786 0.731801 -0.0259123 2.51403e-09 2.52907e-09 -2.14204e-09 -2.22167 -0.733487 0.20892 -2.03217e-16 0.0 -3.88251e-19 -11.1578 -16.0073 -11.421 -1.28619 62.2816 1.49971 -0.481009 6.76167 -5.20304 2.03217e-16 0.0 3.88251e-19 -12.06 -11.057 0.477814 0.0792202 26.2587 -0.0628566 0.606301 2.29408 -5.92481
